<?xml version="1.0" encoding="utf-8"?>
<!-- Generator: Adobe Illustrator 26.3.1, SVG Export Plug-In . SVG Version: 6.00 Build 0)  -->
<svg version="1.1" id="Capa_1" xmlns="http://www.w3.org/2000/svg" xmlns:xlink="http://www.w3.org/1999/xlink" x="0px" y="0px"
	 viewBox="0 0 512 512" style="enable-background:new 0 0 512 512;" xml:space="preserve">
<style type="text/css">
	.st0{fill:#532B17;}
</style>
<g>
	<path class="st0" d="M471.4,206.6l-33.1-6.6c-3.6-12.1-8.5-23.7-14.4-34.8l18.7-28.1c3.5-5.3,2.8-12.3-1.7-16.8l-50.2-50.2
		c-4.5-4.5-11.5-5.2-16.8-1.7l-28.1,18.7c-11.1-5.9-22.7-10.8-34.8-14.4l-6.6-33.1c-1.2-6.2-6.7-10.7-13-10.7h-70.9
		c-6.3,0-11.8,4.5-13,10.7l-6.6,33.1c-12.1,3.6-23.7,8.5-34.8,14.4L138,68.5c-5.3-3.5-12.3-2.8-16.8,1.7L71,120.3
		c-4.5,4.5-5.2,11.5-1.7,16.8l18.7,28.1c-5.9,11.1-10.8,22.7-14.4,34.8l-33.1,6.6c-6.2,1.2-10.7,6.7-10.7,13v70.9
		c0,6.3,4.5,11.8,10.7,13l33.1,6.6c3.6,12.1,8.5,23.7,14.4,34.8l-18.7,28.1c-3.5,5.3-2.8,12.3,1.7,16.8l50.2,50.2
		c4.5,4.5,11.5,5.2,16.8,1.7l27.5-18.3v-83.5c-20.8-22.2-33.6-52-33.6-84.8c0-68.6,55.6-124.1,124.1-124.1s124.1,55.6,124.1,124.1
		c0,32.8-12.8,62.6-33.6,84.8v83.5l27.5,18.3c2.3,1.5,4.8,2.2,7.4,2.2c3.4,0,6.8-1.3,9.4-3.9l50.2-50.2c4.5-4.5,5.2-11.5,1.7-16.8
		l-18.7-28.1c5.9-11.1,10.8-22.7,14.4-34.8l33.1-6.6c6.2-1.2,10.7-6.7,10.7-13v-70.9C482.1,213.3,477.6,207.8,471.4,206.6
		L471.4,206.6z"/>
	<path class="st0" d="M298.1,182.2c-6.7-3.9-15.2,0.2-16.3,7.9l-8.1,56.1h-35.5l-8.1-56.1c-1.1-7.7-9.6-11.8-16.3-7.9
		c-26,15-42.1,43-42.1,72.9c0,32.4,18.2,61.4,47.4,75.7l1.4,0.7v138.2c0,7.3,6,13.3,13.3,13.3h44.3c7.3,0,13.3-6,13.3-13.3V331.5
		l1.4-0.7c29.2-14.3,47.4-43.3,47.4-75.7C340.2,225.2,324.1,197.3,298.1,182.2L298.1,182.2z"/>
</g>
</svg>
