<?xml version="1.0" encoding="utf-8"?>
<!-- Generator: Adobe Illustrator 26.3.1, SVG Export Plug-In . SVG Version: 6.00 Build 0)  -->
<svg version="1.1" id="Layer_1" xmlns="http://www.w3.org/2000/svg" xmlns:xlink="http://www.w3.org/1999/xlink" x="0px" y="0px"
	 viewBox="0 0 512 512" style="enable-background:new 0 0 512 512;" xml:space="preserve">
<style type="text/css">
	.st0{fill:#532B17;}
</style>
<g id="_x31_4">
	<path class="st0" d="M445.4,460h-72.9c-8,0-14.6-6.5-14.6-14.6v-29.1c0-8,6.5-14.6,14.6-14.6h72.9c8,0,14.6,6.5,14.6,14.6v29.1
		C460,453.5,453.5,460,445.4,460z"/>
	<path class="st0" d="M387.1,387.1h-72.9c-8,0-14.6-6.5-14.6-14.6v-29.1c0-8,6.5-14.6,14.6-14.6h72.9c8,0,14.6,6.5,14.6,14.6v29.1
		C401.7,380.6,395.2,387.1,387.1,387.1z"/>
	<path class="st0" d="M270.6,387.1h-72.9c-8,0-14.6-6.5-14.6-14.6v-29.1c0-8,6.5-14.6,14.6-14.6h72.9c8,0,14.6,6.5,14.6,14.6v29.1
		C285.1,380.6,278.6,387.1,270.6,387.1z"/>
	<path class="st0" d="M328.9,460H256c-8,0-14.6-6.5-14.6-14.6v-29.1c0-8,6.5-14.6,14.6-14.6h72.9c8,0,14.6,6.5,14.6,14.6v29.1
		C343.4,453.5,336.9,460,328.9,460z"/>
	<path class="st0" d="M212.3,460h-72.9c-8,0-14.6-6.5-14.6-14.6v-29.1c0-8,6.5-14.6,14.6-14.6h72.9c8,0,14.6,6.5,14.6,14.6v29.1
		C226.9,453.5,220.3,460,212.3,460z"/>
	<path class="st0" d="M256,241.4v-72.9H110.3v102h116.6C226.9,254.5,239.9,241.4,256,241.4z"/>
	<path class="st0" d="M168.6,358h-21.9c-4,0-7.3-3.3-7.3-7.3s3.3-7.3,7.3-7.3h21.9c0-16.1,13.1-29.1,29.1-29.1h33.2
		c-2.5-4.3-4.1-9.2-4.1-14.6v-14.6H110.3c-8,0-14.6-6.5-14.6-14.6v-102c0-8,6.5-14.6,14.6-14.6H256c8,0,14.6,6.5,14.6,14.6v72.9
		h42.9c1.8-49.4-2.4-99.9-12.9-144l12.2-24.4c2.3-4.5,2-9.9-0.6-14.2c-2.7-4.3-7.3-6.9-12.4-6.9H66.6c-5.1,0-9.7,2.6-12.4,6.9
		c-2.7,4.3-2.9,9.7-0.6,14.2l12.2,24.4c-17.9,75.2-17.9,169,0,244.2l-12.2,24.4c-2.3,4.5-2,9.9,0.6,14.2c2.7,4.3,7.3,6.9,12.4,6.9
		h106c-2.5-4.3-4.1-9.2-4.1-14.6 M263.3,81.1h14.6c4,0,7.3,3.3,7.3,7.3c0,4-3.3,7.3-7.3,7.3h-14.6c-4,0-7.3-3.3-7.3-7.3
		C256,84.4,259.3,81.1,263.3,81.1z M205,81.1h14.6c4,0,7.3,3.3,7.3,7.3c0,4-3.3,7.3-7.3,7.3H205c-4,0-7.3-3.3-7.3-7.3
		C197.7,84.4,201,81.1,205,81.1z M146.7,81.1h14.6c4,0,7.3,3.3,7.3,7.3c0,4-3.3,7.3-7.3,7.3h-14.6c-4,0-7.3-3.3-7.3-7.3
		C139.4,84.4,142.7,81.1,146.7,81.1z M88.4,81.1H103c4,0,7.3,3.3,7.3,7.3c0,4-3.3,7.3-7.3,7.3H88.4c-4,0-7.3-3.3-7.3-7.3
		C81.1,84.4,84.4,81.1,88.4,81.1z M103,358H88.4c-4,0-7.3-3.3-7.3-7.3s3.3-7.3,7.3-7.3H103c4,0,7.3,3.3,7.3,7.3S107,358,103,358z"/>
	<path class="st0" d="M328.9,314.3H256c-8,0-14.6-6.5-14.6-14.6v-29.1c0-8,6.5-14.6,14.6-14.6h72.9c8,0,14.6,6.5,14.6,14.6v29.1
		C343.4,307.8,336.9,314.3,328.9,314.3z"/>
</g>
</svg>
