<?xml version="1.0" encoding="utf-8"?>
<!-- Generator: Adobe Illustrator 26.1.0, SVG Export Plug-In . SVG Version: 6.00 Build 0)  -->
<svg version="1.1" id="Layer_1" xmlns="http://www.w3.org/2000/svg" xmlns:xlink="http://www.w3.org/1999/xlink" x="0px" y="0px"
	 viewBox="0 0 512 512" style="enable-background:new 0 0 512 512;" xml:space="preserve">
<style type="text/css">
	.st0{stroke:#000000;stroke-width:6;stroke-miterlimit:10;}
</style>
<g>
	<g>
		<g>
			<path class="st0" d="M396,116c-37.4-37.4-87.1-58-140-58s-102.6,20.6-140,58s-58,87.1-58,140s20.6,102.6,58,140s87.1,58,140,58
				s102.6-20.6,140-58s58-87.1,58-140S433.4,153.4,396,116z M387.8,124.2c21.6,21.6,37.2,47.5,46.1,75.8
				c-9.7-12.6-22.7-24.3-38.9-34.4c-9.9-6.2-20.7-11.7-32.2-16.4c0-0.1,0-0.2-0.1-0.2c-12.7-31-30.4-55.2-50.8-70.8
				C340.3,87,366.3,102.6,387.8,124.2z M124.2,124.2c21.6-21.6,47.5-37.2,75.8-46.1c-12.2,9.3-23.5,21.8-33.4,37.1
				c-1.7,2.7-1,6.3,1.7,8c2.7,1.7,6.3,1,8-1.7c21.6-33.5,49.9-52,79.6-52c36.1,0,69.9,27.4,91.8,73.9c-28-9.3-59.3-14.3-91.8-14.3
				c-52.4,0-101.8,12.9-139,36.3c-16.1,10.2-29.2,21.8-38.9,34.4C87,171.6,102.6,145.7,124.2,124.2z M123.2,175.3
				c6.4-4,13.2-7.8,20.4-11.1c-9.4,28.2-14.4,59.6-14.4,91.8c0,32.5,5,63.8,14.3,91.8c-46.5-21.8-73.9-55.5-73.9-91.8
				C69.6,225.7,88.6,197.1,123.2,175.3z M124.2,387.8c-21.6-21.6-37.2-47.5-46.1-75.7c15.6,20.4,39.9,38.1,71,50.8
				c4.7,11.5,10.2,22.2,16.4,32.1c10.2,16.1,21.8,29.2,34.4,38.9C171.6,425,145.7,409.4,124.2,387.8z M175.3,388.8
				c-22.3-35.4-34.6-82.6-34.6-132.8c0-34.8,6-68.6,17.3-98c29.2-11.2,62.8-17.2,97.9-17.2c50.3,0,97.4,12.3,132.8,34.6
				c34.6,21.8,53.6,50.4,53.6,80.7s-19,58.9-53.6,80.7c-6.4,4-13.2,7.7-20.3,11.1c9.3-28,14.3-59.3,14.3-91.8
				c0-7.3-0.3-14.6-0.8-21.8c-0.2-3.2-3-5.6-6.2-5.4c-3.2,0.2-5.6,3-5.4,6.2c0.5,6.9,0.7,14,0.7,21c0,35.2-6,68.8-17.3,98
				c-29.2,11.2-62.8,17.3-98,17.3c-22.7,0-44.8-2.5-65.9-7.4c-3.1-0.7-6.2,1.2-7,4.3c-0.7,3.1,1.2,6.2,4.3,7
				c21.9,5.1,45,7.8,68.5,7.8c32.5,0,63.8-5,91.8-14.3c-3.4,7.1-7.1,13.9-11.1,20.3c-21.8,34.6-50.4,53.6-80.7,53.6
				S197.1,423.4,175.3,388.8z M387.8,387.8c-21.6,21.6-47.5,37.2-75.8,46.1c12.6-9.7,24.3-22.7,34.4-38.9
				c6.2-9.9,11.7-20.7,16.4-32.1c11.4-4.7,22.2-10.2,32.1-16.4c16.1-10.2,29.2-21.8,38.9-34.4C425,340.4,409.4,366.3,387.8,387.8z"
				/>
		</g>
	</g>
	<g>
		<g>
			<path class="st0" d="M313,214.6c-15,0-27.2,12.2-27.2,27.2v28.5c0,15,12.2,27.2,27.2,27.2c15,0,27.2-12.2,27.2-27.2v-28.5
				C340.1,226.8,327.9,214.6,313,214.6z M328.5,270.2c0,8.6-7,15.6-15.6,15.6s-15.6-7-15.6-15.6v-28.5c0-8.6,7-15.6,15.6-15.6
				s15.6,7,15.6,15.6V270.2z"/>
		</g>
	</g>
	<g>
		<g>
			<path class="st0" d="M248.9,243.1c-5.8,0-11.1,1.8-15.5,4.9c0.5-12.1,10.5-21.8,22.7-21.8c3.2,0,5.8-2.6,5.8-5.8
				c0-3.2-2.6-5.8-5.8-5.8c-18.9,0-34.3,15.4-34.3,34.3v21.4c0,15,12.2,27.2,27.2,27.2c15,0,27.2-12.2,27.2-27.2
				C276,255.3,263.9,243.1,248.9,243.1z M248.9,285.8c-8.6,0-15.6-7-15.6-15.6c0-8.6,7-15.6,15.6-15.6c8.6,0,15.6,7,15.6,15.6
				S257.5,285.8,248.9,285.8z"/>
		</g>
	</g>
	<g>
		<g>
			<path class="st0" d="M203.2,256c5.4-4.3,8.8-10.7,8.8-17.8c0-13-11.5-23.6-25.6-23.6c-8,0-15.4,3.4-20.3,9.2
				c-2.1,2.5-1.7,6.1,0.7,8.2c2.5,2.1,6.1,1.7,8.2-0.7c2.6-3.2,6.9-5,11.4-5c7.7,0,14,5.4,14,12s-6.3,12-14,12
				c-3.2,0-5.8,2.6-5.8,5.8s2.6,5.8,5.8,5.8c7.7,0,14,5.4,14,12c0,6.6-6.3,12-14,12c-4.5,0-8.7-1.9-11.4-5.1c-2-2.5-5.7-2.8-8.2-0.8
				c-2.5,2-2.8,5.7-0.8,8.2c4.9,5.9,12.3,9.2,20.3,9.2c14.1,0,25.6-10.6,25.6-23.6C212,266.7,208.6,260.3,203.2,256z"/>
		</g>
	</g>
	<g>
		<g>
			<path class="st0" d="M355.7,179c-11.1,0-20,9-20,20c0,11.1,9,20,20,20s20-9,20-20S366.7,179,355.7,179z M355.7,207.5
				c-4.7,0-8.4-3.8-8.4-8.4c0-4.7,3.8-8.4,8.4-8.4c4.7,0,8.4,3.8,8.4,8.4C364.1,203.7,360.3,207.5,355.7,207.5z"/>
		</g>
	</g>
</g>
</svg>
