<?xml version="1.0" encoding="utf-8"?>
<!-- Generator: Adobe Illustrator 26.3.1, SVG Export Plug-In . SVG Version: 6.00 Build 0)  -->
<svg version="1.1" id="Layer_1" xmlns="http://www.w3.org/2000/svg" xmlns:xlink="http://www.w3.org/1999/xlink" x="0px" y="0px"
	 viewBox="0 0 1372.3 1387.8" style="enable-background:new 0 0 1372.3 1387.8;" xml:space="preserve">
<style type="text/css">
	.st0{fill:#FFFFFF;}
	.st1{fill:#032D23;}
</style>
<rect class="st0" width="1372.3" height="1387.8"/>
<g>
	<g>
		<path d="M1137.9,663c-1,0.3-2,0.8-2.8,1.4c-1,0.8-1.7,1.8-2.6,2.7c-9.4,9.8-18.7,19.7-28.3,29.3c-7.6,7.6-15.6,14.8-23.5,22.1
			c-11.3,10.4-23,20.3-35.6,29.1c-7.7,5.4-15.5,10.5-24.5,13.4c-2.3,0.8-4.8,1.4-7.2,1.6c-6.8,0.5-13.2-3.4-14-11.3
			c-0.5-5,0.2-9.9,1.5-14.7c1.6-5.8,1.6-5.8,6.6-8.9c0.9-0.6,1.8-1.1,2.7-1.6c5.9-3.6,11.9-6.9,17.6-10.7
			c7.9-5.3,15.7-10.8,23.3-16.5c7.1-5.3,14.2-10.6,20.8-16.3c8.9-7.7,17.6-15.8,26.1-24c6.5-6.2,12.5-13,17.5-20.5
			c2.7-4,4.8-8.2,5.8-13c1.3-6.3-0.9-12.1-7.8-15c-7.6-3.1-15.3-3.7-23.3-1.4c-9.9,2.9-19,7.6-27.5,13.3c-6.9,4.6-13.6,9.5-20,14.8
			c-13.2,10.9-25.4,22.9-36.6,35.9c-5.3,6.1-10.2,12.6-15,19.1c-8.2,10.9-15.2,22.5-20.2,35.2c-1.5,3.8-3.6,7.3-6,10.6
			c-1.4,1.8-2.7,3.7-4.1,5.5c-5.1,7-10,14.1-15.3,20.9c-7.8,9.8-15.8,19.4-23.9,29c-6.5,7.7-13.7,14.7-21.6,21
			c-2.9,2.3-6,4.3-9.6,5.5c-7.4,2.5-9.2,1.2-8.4-6.4c0.3-3,0.9-6,1.7-8.8c2.3-7.6,4.7-15.2,7.3-22.7c2.7-7.6,5.7-15.2,8.7-22.7
			c5.9-14.6,11.8-29.1,18-43.6c4.8-11.4,9.9-22.6,15-33.9c6.3-14.2,12.7-28.3,19.1-42.5c3.8-8.4,7.5-16.7,11.4-25.1
			c5.1-11.1,10.3-22.1,15.4-33.1c3.4-7.4,6.7-14.8,10.2-22.1c5.2-11,10.4-22,14.8-33.4c2.8-7.5,4.3-15.3,3.6-23.3
			c-0.6-5.9-3.4-10.4-8-13.7c-2.4-1.7-5.4-2.6-8.2-3.6c-2.9-1-5.5,0.7-4.9,4c0.1,0.3,0.1,0.7,0.1,1.1c0.4,3.1-0.4,5.9-1.9,8.6
			c-2.9,5.2-5.8,10.5-8.7,15.8c-8,14.9-16.1,29.8-24,44.8c-8.2,15.6-16.3,31.3-24.1,47.1c-6.5,12.9-12.6,26-18.8,39.1
			c-3.4,7.2-6.5,14.5-9.7,21.8c-1.5,3.5-3.6,6.4-6.2,9.1c-8.5,9-17,17.9-25.4,26.9c-8.5,9.2-16.9,18.5-25.2,27.9
			c-8.4,9.5-16.8,19.1-25.1,28.7c-8.2,9.5-16.1,19.1-24.2,28.7c-9.5,11.2-18.9,22.3-28.5,33.4c-11.6,13.5-23.2,27-35,40.4
			c-3.7,4.2-7.9,8-12,12c-1.1,1.1-2.2,2.3-4.5,2c-0.7-3-0.3-5.8,0.2-8.6c2-13.4,6.9-25.9,12.5-38.1c5.6-12.4,12.2-24.3,19-36
			c2.6-4.4,5.1-8.9,7.9-13.2c5.5-8.6,11-17.2,16.7-25.8c5.3-7.9,10.7-15.8,16.1-23.6c5.3-7.5,10.6-15,16-22.4
			c7.8-10.7,15.7-21.3,23.7-31.9c7.3-9.7,14.9-19.3,22.3-28.9c5.8-7.4,11.5-14.7,17.4-22c5.7-7.2,11.6-14.2,17.4-21.4
			c3.3-4.1,6.5-8.4,9.6-12.6c2.7-3.6,4-7.8,4.3-12.3c0.6-9.6-7.9-14.5-14.2-14.6c-2.3-0.1-4.1,0.9-5,3.2c-0.6,1.5-1.2,2.9-1.9,4.4
			c-4.3,8.6-10.2,16.1-16.3,23.4c-7.4,8.8-14.8,17.5-22.2,26.3c-3.5,4.1-6.5,8.8-11.6,11.4c-0.5,0.2-0.8,0.7-1.2,1
			c-4.5,4.2-9,8.4-13.6,12.6c-7.9,7.3-15.6,14.8-23.6,22c-13.9,12.5-28,24.8-42,37.2c-8.8,7.9-18,15.3-27.4,22.5
			c-2.8,2.1-5.9,3.9-9.1,5.4c-2.6,1.3-5.1-0.2-5.5-3c-0.2-1.4-0.2-2.9,0.1-4.2c0.8-3.1,1.6-6.2,3-9c6.9-14.4,16-27.4,25.9-39.8
			c5.1-6.3,10.6-12.3,15.8-18.5c5.6-6.6,10.9-13.5,14.6-21.4c2.1-4.4,3.5-8.9,3.7-13.7c0.5-8.2-4.8-15-12.6-16.6
			c-2.3-0.5-4.2,0.4-5.2,2.6c-0.4,0.8-0.6,1.7-0.7,2.5c-0.2,2.2-1.1,4.1-2.2,5.9c-1.6,2.5-3.1,5.1-5,7.5
			c-7.2,8.9-14.6,17.7-21.8,26.6c-7,8.6-14.1,17.2-20.9,26c-8.1,10.5-15.9,21.2-20.4,33.9c-0.6,1.6-1.6,3.1-2.6,4.6
			c-5.4,7.8-10.9,15.7-16.5,23.4c-7.5,10.3-15,20.5-22.7,30.6c-7.7,9.9-15.7,19.5-24.4,28.6c-5,5.2-10.3,10.2-16,14.7
			c-2.9,2.3-6.1,4.1-9.7,5.3c-5.7,1.9-8.2,0.1-7.5-5.9c0.5-4.4,1.4-8.7,2.6-13c3.5-12.4,7.9-24.5,12.6-36.5
			c5-12.8,10.4-25.5,15.8-38.2c6.4-14.9,12.9-29.8,19.4-44.7c5.4-12.3,10.8-24.5,16.3-36.8c3.4-7.6,7-15,10.4-22.6
			c5.8-12.7,11.7-25.3,17.2-38.1c1.6-3.6,3.8-4.9,7.6-5.2c7.6-0.5,15.1-1.5,22.7-2.3c16.5-1.8,33-3.6,49.5-5.4
			c14.4-1.5,28.9-1.9,43.4-1.9c11.8,0,23.6,0.6,35.3,2.6c5.8,1,11.3,2.7,16.7,5.1c5.1,2.3,9.5,5.5,11.9,10.8
			c0.3,0.6,0.7,1.3,1.6,0.9c0.1-0.1,0.3-0.3,0.3-0.4c0.1-0.5,0.3-1,0.3-1.5c0.7-8.7-3.2-15.3-9.3-21c-6.6-6.2-14.7-9.7-23.2-12.3
			c-10.1-3.1-20.6-4.9-31.2-6c-15.2-1.5-30.3-1.3-45.5-0.7c-8.8,0.3-17.6,1-26.4,1.9c-11.4,1.2-22.8,2.8-34.1,4.2
			c-1.2,0.1-2.4,0-4,0c0.7-2.6,1.7-4.7,2.6-6.8c3.5-7.7,7.2-15.3,9.8-23.4c2.1-6.8,3.3-13.7,2.6-20.8c-0.8-8-7.2-15.6-16.8-17.5
			c-3.2-0.6-4.7,0.7-4.3,4c0.4,3.1-0.1,6-1.6,8.7c-3.9,7.3-7.7,14.7-11.6,22c-6.5,12.1-13,24.3-19.4,36.5c-1.3,2.5-2.9,3.7-5.7,4
			c-11.1,1.2-22.1,2.9-33.1,3.8c-10.5,0.9-21.1,1.2-31.7,1.4c-4.4,0.1-8.8-0.6-13.2-1.1c-1.5-0.2-3.1-0.8-4.5-1.4
			c-2.4-1-4.3-3.6-3.3-6.4c0.3-0.8,0.3-1.6,0.4-2.3c-0.5-0.3-0.6-0.5-0.8-0.4c-0.7,0.1-1.4,0.2-2,0.5c-3.9,2.1-7.4,4.8-10.2,8.3
			c-1.6,2.1-3.1,4.3-4.2,6.7c-3.3,7.8-0.2,13.9,6.6,17.1c1.9,0.9,4,1.4,6,1.9c6.6,1.6,13.3,1.6,20,1.4c17.5-0.4,34.9-2.5,52.3-4.1
			c2.2-0.2,4.5-0.9,6.9,0c-0.2,2.5-1.5,4.5-2.5,6.5c-9,17.6-17.5,35.4-25.7,53.4c-2.8,6.3-5.6,12.6-8.3,18.9c-1,2.3-2.3,4.3-4.5,5.7
			c-7.7,4.7-15.3,9.4-22.9,14.3c-12.4,7.9-24.7,15.8-37,23.7c-5.9,3.8-11.8,7.8-17.7,11.6c-0.8,0.5-1.8,0.6-2.8,0.9
			c-3.8-14.3-3.8-31.2-1.1-42.3c2.5-10.4,7.2-19.5,14.4-27.3c5-5.5,10.7-10.2,17-14.2c6.6-4.1,13.5-7.7,20.5-10.9
			c1.1-0.5,2.3-1.1,3.2-1.9c2.8-2.5,2.2-6.1-1.2-7.7c-1.3-0.6-2.6-1.1-4-1.5c-4.7-1.6-9.5-2.9-14.1-4.7c-5.6-2.2-11-1.8-16.5,0.4
			c-7.6,3.1-14.2,7.7-20.5,12.9c-11.6,9.6-20.9,20.9-27.1,34.7c-7,15.7-7.2,35.8,7.4,51.9c1.9,2.1,3.9,4.1,5.8,6.2
			c3.1,3.2,5.2,7,7.1,10.6c-0.6,2.4-2.4,3-3.8,4c-9.5,7-19,14-28,21.7c-7.5,6.4-14.8,13-21.4,20.5c-3.2,3.6-5.8,7.6-8,11.8
			c-1.9,3.6-2.3,7.5-0.5,11.2c2.2,4.5,5.8,7.4,10.9,8.5c7.5,1.6,14.8,0.4,21.8-2.3c7.4-2.9,14.2-7.1,20.1-12.5
			c15.7-14.5,22.8-32.3,20.6-53.7c-0.2-1.7-0.3-3.5-0.4-5.3c2-1.5,3.8-3,5.7-4.3c15.2-9.9,30.5-19.8,45.8-29.6
			c6.4-4.1,12.9-8,19.4-11.9c0.7-0.4,1.5-1.1,2.4,0.1c-0.2,0.7-0.5,1.5-0.8,2.3c-4.7,12.6-9.6,25.1-14.1,37.7
			c-4.4,12.1-8.1,24.5-11.3,36.9c-3.2,12.3-5.1,24.9-6.2,37.6c-0.7,7.4-0.1,14.8,1.4,22.1c0.6,2.7,1.3,5.5,2.4,8.1
			c3.3,7.7,9.6,10.7,17.6,8.6c3.3-0.9,6.3-2.3,9.2-4c8.8-5.4,16.4-12.3,23.5-19.6c12-12.3,22.9-25.5,33.3-39.1
			c10.4-13.6,20.5-27.4,29.9-41.7c0.5-0.8,1.3-1.5,2-2.1c0.5,0.3,0.7,0.3,0.7,0.4c0.4,1,0.8,1.9,1.1,2.9c1.5,5.3,4.8,9,9.7,11.3
			c1.4,0.7,2.9,1.2,4.4,1.8c2.4,1,4.8,1,7.2,0.2c4.9-1.6,9.7-3.3,14.1-6c7.7-4.6,15-9.8,22.2-15.3c12.5-9.6,24.2-20,35.8-30.6
			c9.3-8.6,18.4-17.5,27.6-26.3c0.7-0.7,1.4-1.3,2.2-2c-0.2,1.6-0.9,2.7-1.7,3.8c-4,5.2-8.1,10.3-12.1,15.4
			c-6.7,8.6-13.4,17.3-20,26c-8.5,11.3-17.2,22.4-24.9,34.2c-2.9,4.4-5.9,8.8-8.6,13.4c-5.8,10.1-11.7,20.1-16.8,30.6
			c-7.3,15.1-13.7,30.6-18.1,46.8c-3.1,11.4-5.6,23-5.8,34.9c-0.1,5.3,0.2,10.6,1.2,15.8c0.7,3.9,2.3,7.4,4.6,10.6
			c2.4,3.5,5.8,4.5,9.8,3.6c1.7-0.4,3.5-1.1,4.8-2.2c2.6-2.1,5-4.4,7.2-7c2.7-3.2,5-6.8,7.6-10.2c7.5-9.8,15-19.6,22.5-29.4
			c7.7-9.9,15.3-19.9,23.1-29.6c9.8-12.3,19.8-24.4,29.7-36.6c14-17.3,28.4-34.2,43.1-50.9c8.8-10.1,17.8-20.1,26.8-30
			c5.6-6.1,11.3-12.1,17.1-18.1c0.4-0.4,1-0.6,2.2-1.3c-0.6,2-0.9,3.1-1.3,4.2c-2.7,6.9-5.4,13.8-8,20.7c-4.8,12.7-9,25.6-12.7,38.7
			c-4,14.3-7,28.8-8.5,43.6c-0.9,8.9-0.7,17.6,1.2,26.3c0.7,3.1,1.5,6.3,2.9,9c3.5,6.7,7.6,9.1,15,8.1c3.8-0.5,7.2-1.9,10.4-3.8
			c7.1-4.4,13.6-9.6,19.4-15.5c5.2-5.3,10.5-10.5,15.3-16.1c8-9.4,15.8-18.9,23.5-28.6c5.5-6.9,10.5-14.2,15.8-21.3
			c0.6-0.8,1.2-1.8,2.8-1.5c0.2,1.3,0.4,2.6,0.6,4c0.7,3.9,1.9,7.5,4.3,10.7c5.1,6.6,11.9,9.8,20,10.6c7,0.6,13.7-0.5,20.3-2.7
			c13.2-4.4,25.1-11.2,36.5-19.1c9.7-6.7,19.1-13.9,27.9-21.9c8.7-8,17.6-15.8,26.1-24c7.9-7.6,15.4-15.6,22.9-23.5
			c4.7-5,9.3-10.2,13.8-15.4c1.1-1.3,2-2.9,2.7-4.5C1141.2,664.3,1139.5,662.6,1137.9,663z M1016.6,707c12.5-16.3,26-31.6,40.6-46
			c7.3-7.2,14.8-14.1,23-20.3c4.4-3.3,8.8-6.5,13.9-8.6c2.4-1,5-1.7,7.6-2.2c2-0.4,2.9,1.1,2,3c-0.7,1.6-1.6,3.1-2.6,4.6
			c-3.2,5.1-7.1,9.7-11.2,14.1c-5.8,6.2-11.6,12.4-17.8,18.2c-11.3,10.6-23.1,20.7-35.6,29.9c-7.4,5.4-14.8,10.8-22.5,15.8
			c-1,0.7-2.1,1.2-4.2,2.4C1011.7,713,1014.3,710.1,1016.6,707z M506.6,745c-0.4,9.9-4.1,18.6-9.7,26.5c-7,9.8-15.6,17.7-26.6,22.9
			c-2.5,1.2-5.2,2.2-7.9,2.8c-1.8,0.5-3.9,0.6-5.8,0.4c-5.4-0.6-8.3-5-7.1-10.2c0.8-3.5,2.8-6.5,5.1-9.2
			c6.6-7.8,14.3-14.6,22.4-20.9c7.5-5.9,15-11.7,22.7-17.4c1.8-1.3,3.5-3,6.1-3.3C506.7,739.5,506.7,742.3,506.6,745z"/>
		<path class="st1" d="M531.1,798.3c-0.2,0.4-0.5,0.9-0.5,1.4c-0.5,8.2-4.3,15.6-5.8,23.6c-0.2,1-0.7,2-1.3,2.9
			c-2.9,5-5.7,10.1-9.8,14.3c-4.2,4.2-9,6.8-14.6,7.9c-9,1.8-17.8,1.1-26.7-1.5c-13.1-3.9-24.5-10.7-35.3-18.8
			c-11.6-8.7-22.1-18.7-32.1-29.1c-11.1-11.6-21.4-23.9-31.2-36.6c-8-10.3-15.5-21-23.1-31.6c-10.6-14.8-20-30.3-29.1-46
			c-1-1.7-1-3.3,0.1-4.9c4.1-6.8,8-13.7,12.2-20.4c7.8-12.4,15.9-24.6,24.6-36.4c8-10.8,15.9-21.6,24.4-31.9
			c7.6-9.3,15.4-18.4,23.8-27c12.4-12.8,25.5-24.9,40.7-34.5c8-5,16.2-9.3,25.4-11.7c8.2-2.1,16.5-3.9,25.1-1.7
			c5.9,1.5,11.3,3.4,15.8,7.9c4,4,7.5,8.4,10.8,13c1.9,2.7,3.7,5.5,6.3,7.8c0.2-0.6,0.5-1,0.4-1.2c-0.8-6.2-2.7-12.1-5.7-17.5
			c-4-7.3-9.8-12.8-17.6-16.1c-5.6-2.4-11.4-3.5-17.5-3.8c-17.7-0.8-34.3,3.6-50.6,9.7c-10.5,4-20.8,8.8-31.8,13.6
			c-2.9-1.6-6.1-3.2-9.1-5c-11.2-6.5-23.1-11.3-35.5-14.9c-11.7-3.4-23.7-4-35.7-3.1c-13.5,1-26.2,5.1-38.2,11.7
			c-11.1,6.1-20.6,14.3-29,23.6c-6.2,7-11.5,14.7-16,23c-7.5,13.9-11.5,28.8-12.6,44.5c-0.6,8.6-0.4,17.3,0.6,25.9
			c1.3,10.2,3.6,20.1,6.9,29.8c1.7,5,3.8,9.9,5.8,14.8c0.8,1.9,0.9,3.7,0,5.6c-1.1,2.4-2.2,4.8-3.2,7.3c-6.4,17-10.4,34.4-10.5,52.6
			c0,15.2,2.2,29.9,7.7,44c5.9,15.2,15.1,28.3,26.6,39.7c9.9,9.8,21.1,17.6,34.1,22.8c16.1,6.5,32.8,7.9,49.9,6.1
			c11.5-1.2,22.4-4.8,33-9.4c6.1-2.6,12.3-5.3,17.9-9.1c2.4-1.7,5.2-2.8,7.7-4.2c4.7,2.3,9.1,4.6,13.6,6.6
			c10,4.4,20.1,8.5,30.7,11.7c12.6,3.8,25.5,5.7,38.6,5c4.4-0.2,8.8-1.2,13-2.3c5.7-1.6,10.5-4.8,14.7-9c5.8-5.8,9.1-13,11-20.8
			c2.2-8.8,2.6-17.8,2.2-26.8C532.3,798.8,532.2,798.1,531.1,798.3z M286.7,564.9c0.5-8.7,2.6-17.1,6.5-24.9
			c4.6-9.4,12-16.2,21.7-19.9c12.1-4.6,24.6-6.3,37.4-3.8c5.5,1.1,11.1,2.2,16.5,3.8c7.6,2.1,14.9,5.5,22,8.9c1.9,0.9,3.8,1.9,5.6,3
			c0.9,0.5,1.7,1.2,2.7,1.9c-1.4,2-3.5,2.8-5.3,3.8c-10.8,6-21.3,12.4-31.7,19.1c-11.7,7.6-22.9,15.8-33.7,24.7
			c-10.8,8.8-21.2,18.1-30.6,28.4c-1.5,1.6-3,3.4-5.3,4.5c-0.4-1-0.8-1.7-1.1-2.6C287.4,596.3,285.7,580.7,286.7,564.9z
			 M397.2,832.4c-11.9,7-24.6,12.2-38.2,15.1c-14,3-28,3-41.7-1.8c-12.6-4.4-21.2-12.9-26-25.3c-3.3-8.5-4.7-17.3-4.9-26.4
			c-0.3-13.7,1.5-27.1,4.7-40.3c0.2-1,0.7-2,1.4-3.8c10.8,11.3,21.4,21.6,32.8,31c11.4,9.5,23.3,18.2,35.6,26.5
			c12.3,8.2,25.1,15.6,38.5,23C398.4,831.3,397.9,832,397.2,832.4z"/>
	</g>
	<g>
		<path d="M362.3,961.5v-29.5H380v4.2h-13.5v7.4h10.2v4.2h-10.2v9.4h14.3v4.3H362.3z"/>
		<path d="M538.1,961.5l-9.2-12.1l-9.2,12.1h-5.3l11.9-15.6l-10.5-13.8h5.3l7.9,10.3l7.9-10.3h5.3l-10.5,13.9l11.9,15.6H538.1z"/>
		<path d="M698.8,936.8c-1.8-0.8-3.8-1.2-5.9-1.2c-1.5,0-3,0.3-4.4,0.8c-1.4,0.6-2.6,1.3-3.6,2.3c-1,1-1.8,2.1-2.4,3.3
			c-0.6,1.3-0.9,2.6-0.9,4.1c0,1.6,0.3,3.2,0.9,4.6c0.6,1.4,1.4,2.7,2.4,3.7c1,1.1,2.2,1.9,3.6,2.5c1.4,0.6,2.8,0.9,4.4,0.9
			c2.1,0,4.1-0.4,5.8-1.3c1.8-0.9,3.3-2,4.5-3.5v5.7c-1.5,1-3.1,1.8-4.9,2.4c-1.8,0.6-3.7,0.9-5.6,0.9c-2.1,0-4.1-0.4-6-1.3
			c-1.9-0.8-3.5-2-4.9-3.4c-1.4-1.4-2.5-3.1-3.3-5.1c-0.8-1.9-1.2-4-1.2-6.2c0-2,0.4-3.9,1.2-5.7c0.8-1.8,1.9-3.3,3.3-4.7
			c1.4-1.3,3-2.4,4.9-3.2c1.9-0.8,3.8-1.2,6-1.2c2,0,3.9,0.3,5.7,0.8c1.8,0.5,3.4,1.3,4.9,2.2v5.5
			C702.1,938.7,700.6,937.6,698.8,936.8z"/>
		<path d="M838.7,961.5v-29.5h17.7v4.2h-13.5v7.4h10.2v4.2h-10.2v9.4h14.3v4.3H838.7z"/>
		<path d="M992.4,961.5V932h4.2v25.2h13.4v4.2H992.4z"/>
	</g>
</g>
</svg>
